<svg xmlns="http://www.w3.org/2000/svg" data-name="Layer 1" viewBox="0 0 100 100" x="0px" y="0px">
  <circle cx="50" cy="50" r="50" fill="#646cff" />
  <title>park iconsv2</title>
  <path d="M77,45a13.91,13.91,0,0,0-4.65.81L68,37.51V34h3a2,2,0,0,0,0-4H60a2,2,0,0,0,0,4h4v2H40V32a2,2,0,0,0-2-2H32a2,2,0,0,0,0,4h4v8.29c-.38,1.25-3.21,5.37-4.92,7.86l-.08.12V47.43a11,11,0,0,0-22,0V72a2,2,0,0,0,4,0V47.43a7,7,0,0,1,14,0V72a2,2,0,0,0,3.79.87,14,14,0,0,0,6.66-25c.4-.62.75-1.19,1.06-1.72L54.67,60.5l.12.09.13.1.18.1.15.07.21.07.15,0A2,2,0,0,0,56,61h7.16A14,14,0,1,0,77,45ZM64.79,40l4,7.67A14,14,0,0,0,63.16,57H59.24l5.55-11.11a2,2,0,0,0-3.58-1.79L55.38,55.77,40,42.1V40Zm8.9,17H67.2a10,10,0,0,1,3.48-5.75ZM39,59a10,10,0,0,1-8,9.8V57.52c.72-1.25,2-3.13,3.38-5.11l.84-1.23A10,10,0,0,1,39,59ZM77,69a10,10,0,0,1-9.8-8H77a2,2,0,0,0,1.77-2.93L74.23,49.4A10,10,0,1,1,77,69Z" fill="#fff" />
  <path d="M24.27,50.19a2,2,0,0,0-1.9-3.52,14,14,0,0,0-.2,24.56,2,2,0,1,0,2-3.49,10,10,0,0,1,.14-17.55Z" fill="#fff" />
</svg>